#!OML:ASF F:\VICON\USERDATA\INSTALL\rory3\rory3.ASF
:FULLY-SPECIFIED
:DEGREES
17
root -0.34923 17.7521 -20.146 4.73711 4.2583 2.28608
lowerback 16.4837 -3.6787 -5.25042
upperback 1.16117 -5.84684 -0.352093
thorax -7.48223 -2.6589 3.8789
lowerneck -2.13926 2.95016 -1.13859
upperneck -12.1049 3.83312 -1.2004
head -3.52811 1.99214 -0.288021
rclavicle 0 -6.36111e-015
rhumerus -53.3365 6.70629 -84.4125
rradius 71.4073
rwrist 4.49563
rhand -38.6 33.0423
rfingers 7.12502
rthumb -11.6179 3.38434
lclavicle 0 -6.36111e-015
lhumerus -17.3098 -18.8411 85.6914
lradius 114.428
lwrist 20.503
lhand -39.5369 4.57003
lfingers 7.12502
lthumb -12.5214 34.1749
rfemur -41.7777 -7.91086 16.8996
rtibia 97.4443
rfoot 7.88371 -1.02825
rtoes -5.05619
lfemur 2.96132 -1.79839 -26.9333
ltibia 30.6158
lfoot -5.67154 -6.63413
ltoes -21.9944
18
root -0.357455 17.8454 -19.5835 5.09519 4.22543 2.07099
lowerback 16.0952 -4.09823 -5.19689
upperback 0.962424 -6.34079 0.112313
thorax -7.38527 -2.89556 4.41919
lowerneck -2.37449 3.28713 -1.71335
upperneck -11.9161 4.27678 -1.27324
head -3.43159 2.23703 -0.216953
rclavicle -4.67144e-015 -3.1408e-014
rhumerus -54.267 7.61166 -84.1557
rradius 71.8981
rwrist 3.93291
rhand -39.6398 32.2234
rfingers 7.12502
rthumb -12.6206 2.62463
lclavicle -4.67144e-015 -3.1408e-014
lhumerus -17.3044 -18.4733 85.4056
lradius 115.198
lwrist 21.5212
lhand -38.9792 4.49496
lfingers 7.12502
lthumb -11.9836 34.1319
rfemur -43.2721 -7.04501 17.5751
rtibia 94.2511
rfoot 9.36561 -1.45415
rtoes 5.26589
lfemur 5.04914 -1.47462 -26.2544
ltibia 28.4076
lfoot -1.60407 -7.18448
ltoes -21.326
19
root -0.361134 17.936 -19.0151 5.40006 4.10621 2.10225
lowerback 15.5846 -4.39001 -5.15483
upperback 0.97836 -6.67298 0.336989
thorax -7.02706 -3.07366 4.64669
lowerneck -3.2458 3.44606 -2.03761
upperneck -11.5872 4.51306 -1.23662
head -3.16723 2.36147 -0.132259
rclavicle -4.37326e-014 5.96354e-015
rhumerus -55.0475 7.934 -83.9101
rradius 72.6351
rwrist 3.49634
rhand -39.7751 31.9034
rfingers 7.12502
rthumb -12.751 2.31277
lclavicle -4.37326e-014 5.96354e-015
lhumerus -16.8867 -18.5512 84.8606
lradius 115.963
lwrist 22.8154
lhand -38.251 5.74674
lfingers 7.12502
lthumb -11.2814 35.4234
rfemur -44.4598 -6.17067 17.799
rtibia 90.8007
rfoot 9.18899 -1.71989
rtoes 4.89485
lfemur 7.29223 -1.20235 -25.8845
ltibia 26.0358
lfoot 2.91483 -7.46277
ltoes -20.8091
20
root -0.363437 18.0331 -18.4479 5.5332 4.0192 2.22365
lowerback 15.6059 -4.29945 -4.94427
upperback 0.573205 -6.55568 0.0841575
thorax -7.54463 -2.99691 4.26836
lowerneck -2.64419 3.24605 -0.704127
upperneck -11.2747 4.19727 -1.70382
head -3.12316 2.16452 -0.508929
rclavicle 4.23411e-014 -7.55382e-015
rhumerus -57.024 6.65009 -83.8526
rradius 73.4182
rwrist 3.27722
rhand -39.7115 32.3953
rfingers 7.12502
rthumb -12.6896 2.80084
lclavicle 4.23411e-014 -7.55382e-015
lhumerus -17.4691 -20.1556 84.3961
lradius 116.8
lwrist 24.1718
lhand -37.6916 8.08884
lfingers 7.12502
lthumb -10.7418 37.7942
rfemur -45.2253 -5.39333 17.8551
rtibia 87.0244
rfoot 8.11626 -1.82098
rtoes 2.38794
lfemur 9.64749 -1.12842 -25.6531
ltibia 23.45
lfoot 8.14671 -6.9619
ltoes -19.5777
21
root -0.361952 18.1239 -17.8746 5.6295 3.85779 2.19678
lowerback 15.712 -4.62691 -5.04078
upperback 0.300106 -6.98084 0.607928
thorax -7.77799 -3.17526 4.99066
lowerneck -3.27582 3.43952 -1.52399
upperneck -10.5365 4.46937 -1.75469
head -2.77459 2.32484 -0.36587
rclavicle 1.78906e-014 -1.17283e-014
rhumerus -57.8622 7.52709 -83.1617
rradius 73.6541
rwrist 2.93616
rhand -39.9763 33.187
rfingers 7.12502
rthumb -12.9449 3.60852
lclavicle 1.78906e-014 -1.17283e-014
lhumerus -18.1191 -19.7159 84.5492
lradius 117.534
lwrist 25.0775
lhand -38.1195 8.74134
lfingers 7.12502
lthumb -11.1546 38.4248
rfemur -45.7621 -4.58451 18.0285
rtibia 82.9972
rfoot 6.71092 -1.89249
rtoes 1.59211
lfemur 12.0354 -1.33977 -25.3888
ltibia 20.6239
lfoot 13.6694 -5.17251
ltoes -18.3284
22
root -0.360155 18.2017 -17.2941 5.76232 3.56013 1.92828
lowerback 15.2691 -4.71936 -4.69921
upperback 0.114563 -7.01341 0.799223
thorax -7.74407 -3.20112 4.97719
lowerneck -3.22688 3.43137 -1.47006
upperneck -9.96854 4.46513 -1.75382
head -2.5904 2.31588 -0.36626
rclavicle 1.13059e-013 -2.84262e-014
rhumerus -59.0114 7.36825 -82.8057
rradius 73.9311
rwrist 2.63763
rhand -40.4627 33.5209
rfingers 7.12502
rthumb -13.4138 3.97272
lclavicle 1.13059e-013 -2.84262e-014
lhumerus -18.7256 -20.2999 84.3875
lradius 118.021
lwrist 25.9268
lhand -38.6149 7.03477
lfingers 7.12502
lthumb -11.6323 36.6919
rfemur -46.1335 -3.65319 18.4127
rtibia 78.739
rfoot 6.01149 -2.15167
rtoes 1.36175
lfemur 14.5336 -1.83776 -25.0526
ltibia 17.5552
lfoot 19.162 -2.44543
ltoes -17.099
23
root -0.356879 18.2653 -16.7212 5.88756 2.8646 1.9739
lowerback 14.6583 -4.58334 -4.75033
upperback 0.0831991 -6.81543 0.80073
thorax -7.45197 -3.11878 4.90587
lowerneck -3.15865 3.45291 -1.08748
upperneck -9.65302 4.48656 -1.86842
head -2.48442 2.31398 -0.462639
rclavicle 1.54555e-014 4.17448e-015
rhumerus -60.1442 6.88877 -82.5039
rradius 74.4347
rwrist 2.33505
rhand -40.935 33.6585
rfingers 7.12502
rthumb -13.8689 4.14092
lclavicle 1.54555e-014 4.17448e-015
lhumerus -19.1327 -21.1171 84.0346
lradius 118.554
lwrist 26.5073
lhand -38.351 6.43543
lfingers 7.12502
lthumb -11.3778 36.1068
rfemur -46.3761 -2.54007 18.304
rtibia 74.3309
rfoot 5.52133 -2.4958
rtoes 1.41154
lfemur 17.2452 -1.93837 -25.2385
ltibia 14.1354
lfoot 24.7588 0.804843
ltoes -12.8125
24
root -0.347901 18.3478 -16.1453 6.02833 2.15675 2.13282
lowerback 14.266 -4.49053 -4.89435
upperback 0.029506 -6.69297 0.895297
thorax -7.27581 -3.06133 5.02559
lowerneck -3.56331 3.5339 -1.068
upperneck -9.23317 4.60406 -1.90536
head -2.27162 2.36767 -0.462608
rclavicle -8.89313e-014 9.93923e-015
rhumerus -61.0467 6.78695 -82.0595
rradius 74.9396
rwrist 2.1481
rhand -40.91 33.8057
rfingers 7.12502
rthumb -13.8449 4.28648
lclavicle -8.89313e-014 9.93923e-015
lhumerus -19.6134 -21.624 83.9111
lradius 119.114
lwrist 26.5919
lhand -37.9887 6.29396
lfingers 7.12502
lthumb -11.0284 35.9842
rfemur -46.297 -1.42461 17.9799
rtibia 69.5958
rfoot 4.75713 -2.47222
rtoes -0.458986
lfemur 20.1279 -2.02176 -25.6219
ltibia 10.396
lfoot 31.8462 3.8608
ltoes -2.48034
25
root -0.335808 18.4415 -15.5606 6.16914 1.58749 2.39946
lowerback 13.8279 -4.3993 -5.03328
upperback 0.0383344 -6.5745 0.875824
thorax -7.02132 -3.01253 5.01443
lowerneck -3.95716 3.52496 -0.822469
upperneck -8.85728 4.59309 -1.99248
head -2.07109 2.35154 -0.515092
rclavicle 1.72694e-014 1.19271e-014
rhumerus -61.8562 6.46154 -81.6617
rradius 75.6142
rwrist 2.11128
rhand -41.1148 33.4919
rfingers 7.12502
rthumb -14.0423 3.98624
lclavicle 1.72694e-014 1.19271e-014
lhumerus -20.0272 -22.1952 83.7165
lradius 119.414
lwrist 26.415
lhand -37.74 4.78793
lfingers 7.12502
lthumb -10.7884 34.4909
rfemur -45.9454 -0.393923 17.5359
rtibia 64.5782
rfoot 4.23442 -2.14691
rtoes -3.62189
lfemur 23.3224 -2.25592 -26.0995
ltibia 6.16114
lfoot 36.817 5.74306
ltoes -0.581635
26
root -0.322823 18.5199 -14.9781 6.32678 1.0729 2.54046
lowerback 13.4012 -4.26617 -4.82815
upperback 0.0324336 -6.35657 0.717642
thorax -6.85392 -2.92427 4.65388
lowerneck -4.19244 3.40699 -0.3182
upperneck -8.57633 4.42675 -2.06338
head -1.9265 2.2516 -0.609547
rclavicle -6.66426e-014 -8.94531e-016
rhumerus -62.5987 5.76105 -81.4177
rradius 76.153
rwrist 2.2756
rhand -41.4027 33.3183
rfingers 7.12502
rthumb -14.3196 3.8321
lclavicle -6.66426e-014 -8.94531e-016
lhumerus -20.3273 -23.1545 83.3622
lradius 119.548
lwrist 26.1214
lhand -37.6286 5.01046
lfingers 7.12502
lthumb -10.6811 34.719
rfemur -45.4383 0.538005 17.1858
rtibia 59.4095
rfoot 3.87501 -2.09981
rtoes -3.94895
lfemur 27.5257 -2.575 -26.339
ltibia -2.54444e-014
lfoot 41.0811 6.6557
ltoes -0.910898
27
root -0.307452 18.5829 -14.4079 6.51726 0.826506 2.83737
lowerback 13.2828 -4.29363 -4.78078
upperback -0.230133 -6.39364 0.664242
thorax -7.07721 -2.93097 4.58262
lowerneck -4.08936 3.38907 -0.0640244
upperneck -8.38582 4.39391 -2.15089
head -1.87515 2.22853 -0.677605
rclavicle 2.42393e-014 -2.04748e-014
rhumerus -63.4369 5.5566 -81.1175
rradius 76.5091
rwrist 2.52867
rhand -41.391 33.7384
rfingers 7.12502
rthumb -14.3084 4.25142
lclavicle 2.42393e-014 -2.04748e-014
lhumerus -21.241 -23.7715 83.4806
lradius 119.773
lwrist 25.4506
lhand -37.3882 5.48472
lfingers 7.12502
lthumb -10.4491 35.205
rfemur -44.808 1.16303 16.6691
rtibia 54.1967
rfoot 3.73572 -2.12779
rtoes -3.5455
lfemur 28.6047 -3.07725 -26.9717
ltibia 1.27222e-014
lfoot 40.478 6.44343
ltoes -3.77702
28
root -0.296919 18.6362 -13.8473 6.62738 0.832415 3.39734
lowerback 13.1326 -4.38644 -5.03114
upperback -0.354314 -6.55994 0.568197
thorax -7.09303 -3.00219 4.63976
lowerneck -3.98615 3.39825 0.00951624
upperneck -8.38223 4.40571 -2.12244
head -1.89063 2.23204 -0.68315
rclavicle 1.02126e-013 2.83268e-015
rhumerus -64.0133 5.31692 -80.8353
rradius 77.0318
rwrist 2.83662
rhand -41.8824 33.6249
rfingers 7.12502
rthumb -14.7819 4.17209
lclavicle 1.02126e-013 2.83268e-015
lhumerus -22.2317 -24.0884 83.6517
lradius 119.991
lwrist 24.4513
lhand -36.8629 5.76464
lfingers 7.12502
lthumb -9.9424 35.5098
rfemur -43.904 1.69003 15.8147
rtibia 49.0367
rfoot 3.71163 -2.42177
rtoes -3.58181
lfemur 29.8117 -3.81742 -27.921
ltibia 5.08889e-014
lfoot 37.7919 6.1392
ltoes -13.8466
29
root -0.293716 18.6772 -13.2961 6.68765 0.720639 3.93791
lowerback 12.7498 -4.39005 -5.31045
upperback -0.102257 -6.58916 0.380879
thorax -6.59595 -3.03747 4.54521
lowerneck -4.24542 3.39385 0.136511
upperneck -8.63081 4.40027 -2.01129
head -1.92641 2.22317 -0.668093
rclavicle -8.68441e-015 -7.55382e-015
rhumerus -63.8145 4.80456 -80.6881
rradius 77.4736
rwrist 3.13009
rhand -42.2872 33.3232
rfingers 7.12502
rthumb -15.1718 3.89941
lclavicle -8.68441e-015 -7.55382e-015
lhumerus -22.5013 -24.353 83.4338
lradius 119.973
lwrist 23.216
lhand -36.1513 6.65421
lfingers 7.12502
lthumb -9.2558 36.431
rfemur -42.901 2.54069 14.9272
rtibia 44.004
rfoot 3.91349 -3.31307
rtoes -3.10622
lfemur 28.6106 -4.35846 -29.0812
ltibia 4.91554
lfoot 31.7029 5.2909
ltoes -20.3226
30
root -0.283573 18.7025 -12.7427 6.6713 0.59547 4.70018
lowerback 12.3484 -4.35525 -5.80406
upperback 0.227744 -6.58924 0.181455
thorax -5.9879 -3.05945 4.5453
lowerneck -4.61073 3.36437 0.159131
upperneck -8.91421 4.35802 -1.97898
head -1.95644 2.19997 -0.658543
rclavicle 3.41288e-014 -2.38542e-015
rhumerus -63.3484 4.28507 -80.361
rradius 77.7704
rwrist 3.22455
rhand -42.9546 33.2666
rfingers 7.12502
rthumb -15.8146 3.89258
lclavicle 3.41288e-014 -2.38542e-015
lhumerus -22.8838 -24.6828 83.5258
lradius 119.939
lwrist 22.0792
lhand -35.9066 7.34349
lfingers 7.12502
lthumb -9.0197 37.1307
rfemur -41.78 3.29555 13.8298
rtibia 39.2296
rfoot 4.36086 -4.61486
rtoes -3.6875
lfemur 27.4258 -4.89912 -30.5052
ltibia 9.88849
lfoot 24.8195 5.02947
ltoes -40.0825
